<?xml version="1.0" encoding="iso-8859-1"?>
<!-- Generator: Adobe Illustrator 20.1.0, SVG Export Plug-In . SVG Version: 6.00 Build 0)  -->
<svg xmlns="http://www.w3.org/2000/svg" xmlns:xlink="http://www.w3.org/1999/xlink" version="1.1" id="&#1057;&#1083;&#1086;&#1081;_1" x="0px" y="0px" viewBox="0 0 64 64" style="enable-background:new 0 0 64 64;" xml:space="preserve">
<linearGradient id="SVGID_1__52555" gradientUnits="userSpaceOnUse" x1="45" y1="45.6667" x2="45" y2="48.5" spreadMethod="reflect">
	<stop offset="0" style="stop-color:#6DC7FF"/>
	<stop offset="1" style="stop-color:#E6ABFF"/>
</linearGradient>
<rect x="40" y="46" style="fill:url(#SVGID_1__52555);" width="10" height="2"/>
<linearGradient id="SVGID_2__52555" gradientUnits="userSpaceOnUse" x1="19" y1="7.25" x2="19" y2="57.7896" spreadMethod="reflect">
	<stop offset="0" style="stop-color:#1A6DFF"/>
	<stop offset="1" style="stop-color:#C822FF"/>
</linearGradient>
<path style="fill:url(#SVGID_2__52555);" d="M27,30H11c-1.654,0-3-1.346-3-3V11c0-1.654,1.346-3,3-3h16c1.654,0,3,1.346,3,3v16  C30,28.654,28.654,30,27,30z M11,10c-0.552,0-1,0.448-1,1v16c0,0.552,0.448,1,1,1h16c0.552,0,1-0.448,1-1V11c0-0.552-0.448-1-1-1H11  z"/>
<linearGradient id="SVGID_3__52555" gradientUnits="userSpaceOnUse" x1="45" y1="7.25" x2="45" y2="57.7896" spreadMethod="reflect">
	<stop offset="0" style="stop-color:#1A6DFF"/>
	<stop offset="1" style="stop-color:#C822FF"/>
</linearGradient>
<path style="fill:url(#SVGID_3__52555);" d="M53,30H37c-1.654,0-3-1.346-3-3V11c0-1.654,1.346-3,3-3h16c1.654,0,3,1.346,3,3v16  C56,28.654,54.654,30,53,30z M37,10c-0.552,0-1,0.448-1,1v16c0,0.552,0.448,1,1,1h16c0.552,0,1-0.448,1-1V11c0-0.552-0.448-1-1-1H37  z"/>
<linearGradient id="SVGID_4__52555" gradientUnits="userSpaceOnUse" x1="45" y1="17.75" x2="45" y2="20.3333" spreadMethod="reflect">
	<stop offset="0" style="stop-color:#6DC7FF"/>
	<stop offset="1" style="stop-color:#E6ABFF"/>
</linearGradient>
<rect x="40" y="18" style="fill:url(#SVGID_4__52555);" width="10" height="2"/>
<linearGradient id="SVGID_5__52555" gradientUnits="userSpaceOnUse" x1="19" y1="13.9167" x2="19" y2="24.1941" spreadMethod="reflect">
	<stop offset="0" style="stop-color:#6DC7FF"/>
	<stop offset="1" style="stop-color:#E6ABFF"/>
</linearGradient>
<polygon style="fill:url(#SVGID_5__52555);" points="24,18 20,18 20,14 18,14 18,18 14,18 14,20 18,20 18,24 20,24 20,20 24,20 "/>
<linearGradient id="SVGID_6__52555" gradientUnits="userSpaceOnUse" x1="19" y1="7.25" x2="19" y2="57.7896" spreadMethod="reflect">
	<stop offset="0" style="stop-color:#1A6DFF"/>
	<stop offset="1" style="stop-color:#C822FF"/>
</linearGradient>
<path style="fill:url(#SVGID_6__52555);" d="M27,56H11c-1.654,0-3-1.346-3-3V37c0-1.654,1.346-3,3-3h16c1.654,0,3,1.346,3,3v16  C30,54.654,28.654,56,27,56z M11,36c-0.552,0-1,0.448-1,1v16c0,0.552,0.448,1,1,1h16c0.552,0,1-0.448,1-1V37c0-0.552-0.448-1-1-1H11  z"/>
<linearGradient id="SVGID_7__52555" gradientUnits="userSpaceOnUse" x1="45" y1="7.25" x2="45" y2="57.7896" spreadMethod="reflect">
	<stop offset="0" style="stop-color:#1A6DFF"/>
	<stop offset="1" style="stop-color:#C822FF"/>
</linearGradient>
<path style="fill:url(#SVGID_7__52555);" d="M53,56H37c-1.654,0-3-1.346-3-3V37c0-1.654,1.346-3,3-3h16c1.654,0,3,1.346,3,3v16  C56,54.654,54.654,56,53,56z M37,36c-0.552,0-1,0.448-1,1v16c0,0.552,0.448,1,1,1h16c0.552,0,1-0.448,1-1V37c0-0.552-0.448-1-1-1H37  z"/>
<linearGradient id="SVGID_8__52555" gradientUnits="userSpaceOnUse" x1="19" y1="40.6667" x2="19" y2="49.3733" spreadMethod="reflect">
	<stop offset="0" style="stop-color:#6DC7FF"/>
	<stop offset="1" style="stop-color:#E6ABFF"/>
</linearGradient>
<polygon style="fill:url(#SVGID_8__52555);" points="23.242,42.172 21.828,40.758 19,43.586 16.172,40.758 14.758,42.172 17.586,45   14.758,47.829 16.172,49.243 19,46.415 21.828,49.243 23.242,47.829 20.414,45 "/>
<linearGradient id="SVGID_9__52555" gradientUnits="userSpaceOnUse" x1="45" y1="41.75" x2="45" y2="44.2514" spreadMethod="reflect">
	<stop offset="0" style="stop-color:#6DC7FF"/>
	<stop offset="1" style="stop-color:#E6ABFF"/>
</linearGradient>
<rect x="40" y="42" style="fill:url(#SVGID_9__52555);" width="10" height="2"/>
</svg>
